<svg width="40" height="40" viewBox="0 0 40 40" fill="none" xmlns="http://www.w3.org/2000/svg">
<g clip-path="url(#clip0)">
<path d="M21.1953 28.9648H18.3128C17.8313 28.9648 17.4396 28.5732 17.4396 28.0917V21.59H15.7579C15.2764 21.59 14.8848 21.1982 14.8848 20.7169V17.9309C14.8848 17.4494 15.2764 17.0577 15.7579 17.0577H17.4396V15.6626C17.4396 14.2793 17.874 13.1024 18.6956 12.2593C19.521 11.4124 20.6744 10.9648 22.0312 10.9648L24.2296 10.9684C24.7103 10.9692 25.1012 11.3609 25.1012 11.8416V14.4283C25.1012 14.9098 24.7097 15.3014 24.2284 15.3014L22.7482 15.302C22.2968 15.302 22.1819 15.3925 22.1573 15.4202C22.1168 15.4662 22.0686 15.5963 22.0686 15.9554V17.0576H24.1171C24.2713 17.0576 24.4208 17.0956 24.5492 17.1673C24.8262 17.3221 24.9984 17.6147 24.9984 17.931L24.9973 20.717C24.9973 21.1982 24.6056 21.5899 24.1241 21.5899H22.0686V28.0917C22.0686 28.5732 21.6768 28.9648 21.1953 28.9648ZM18.4949 27.9096H21.0132V21.1176C21.0132 20.7961 21.5962 20.5346 21.5962 20.5346H23.942L23.943 18.113H21.596C21.2747 18.113 21.0132 17.8515 21.0132 17.53V15.9554C21.0132 15.5431 21.0551 15.0743 21.3663 14.7219C21.7423 14.2959 22.3349 14.2467 22.748 14.2467L24.046 14.2462V12.0234L22.0304 12.0201C19.8499 12.0201 18.4949 13.4159 18.4949 15.6626V17.53C18.4949 17.8513 18.2334 18.113 17.912 18.113H15.94V20.5346H17.912C18.2334 20.5346 18.4949 20.7961 18.4949 21.1176V27.9096Z" fill="white"/>
</g>
<circle cx="20" cy="20" r="19" stroke="white" stroke-width="2"/>
<defs>
<clipPath id="clip0">
<rect width="17.9648" height="18" fill="white" transform="translate(11 11)"/>
</clipPath>
</defs>
</svg>
