<svg width="40" height="40" viewBox="0 0 40 40" fill="none" xmlns="http://www.w3.org/2000/svg">
<path d="M30 0V21.25H27.5V12.7913L15 20.2913V12.7913L0 21.7913V40H40V0H30ZM10 37.5H7.5V30H10V37.5ZM15 37.5H12.5V30H15V37.5ZM37.5 37.5H17.5V27.5H5V37.5H2.5V23.2075L12.5 17.2075V24.7075L25 17.2075V23.75H37.5V37.5ZM37.5 21.25H32.5V7.5H37.5V21.25ZM37.5 5H32.5V2.5H37.5V5Z" fill="currentColor"/>
<path d="M22.5 27.5H20V30H22.5V27.5Z" fill="currentColor"/>
<path d="M27.5 27.5H25V30H27.5V27.5Z" fill="currentColor"/>
<path d="M32.5 27.5H30V30H32.5V27.5Z" fill="currentColor"/>
<path d="M22.5 32.5H20V35H22.5V32.5Z" fill="currentColor"/>
<path d="M27.5 32.5H25V35H27.5V32.5Z" fill="currentColor"/>
<path d="M32.5 32.5H30V35H32.5V32.5Z" fill="currentColor"/>
</svg>
