<svg width="40" height="40" viewBox="0 0 40 40" fill="none" xmlns="http://www.w3.org/2000/svg">
<g clip-path="url(#clip0)">
<path d="M40 18.1492V10.4513H36.966L29.8103 4.6051C28.0115 3.13536 25.5663 2.78763 23.4289 3.69723L22.0013 4.30487C20.8177 4.80861 19.4647 4.69487 18.3817 4.0005L17.2947 3.30356C14.8557 1.73976 11.6951 2.05163 9.60883 4.06214L2.97909 10.4513H0V18.1493H2.87386L4.62282 27.61H1.17186V29.9537H5.05617L5.55108 32.6308H8.40307C8.23682 33.0511 8.1444 33.5085 8.1444 33.9872C8.1444 36.0275 9.8043 37.6873 11.8445 37.6873C13.8847 37.6873 15.5446 36.0274 15.5446 33.9872C15.5446 33.5085 15.4522 33.0511 15.2859 32.6308H24.7139C24.5477 33.0511 24.4552 33.5085 24.4552 33.9872C24.4552 36.0275 26.1151 37.6873 28.1553 37.6873C30.1955 37.6873 31.8554 36.0274 31.8554 33.9872C31.8554 33.5085 31.763 33.0511 31.5968 32.6308H34.4488L34.9437 29.9537H38.828V27.61H35.3769L37.1259 18.1493H40V18.1492ZM11.2352 5.74969C12.5366 4.49549 14.5082 4.30097 16.0296 5.2765L17.1166 5.97344C18.8524 7.08639 21.0215 7.26897 22.919 6.46132L24.3467 5.85368C25.68 5.28618 27.2052 5.50321 28.3274 6.42007L33.2615 10.4513H6.35662L11.2352 5.74969ZM2.34371 12.795H37.6563V15.8056H2.34371V12.795ZM13.201 33.9871C13.201 34.7351 12.5925 35.3435 11.8446 35.3435C11.0967 35.3435 10.4882 34.735 10.4882 33.9871C10.4882 33.2393 11.0967 32.6308 11.8446 32.6308C12.5925 32.6308 13.201 33.2393 13.201 33.9871ZM29.5119 33.9871C29.5119 34.7351 28.9034 35.3435 28.1555 35.3435C27.4076 35.3435 26.7991 34.735 26.7991 33.9871C26.7991 33.2393 27.4076 32.6308 28.1555 32.6308C28.9034 32.6308 29.5119 33.2393 29.5119 33.9871ZM32.4987 30.287H7.50129L5.25734 18.1492H34.7427L32.4987 30.287Z" fill="white"/>
</g>
<defs>
<clipPath id="clip0">
<rect width="40" height="40" fill="white"/>
</clipPath>
</defs>
</svg>
