<svg width="40" height="40" viewBox="0 0 40 40" fill="none" xmlns="http://www.w3.org/2000/svg">
<path d="M23.7713 11H16.2287C13.3456 11 11 13.3456 11 16.2287V23.7713C11 26.6544 13.3456 29 16.2287 29H23.7713C26.6544 29 29 26.6544 29 23.7713V16.2287C29 13.3456 26.6544 11 23.7713 11ZM27.5938 23.7713C27.5938 25.879 25.879 27.5938 23.7713 27.5938H16.2287C14.121 27.5938 12.4062 25.879 12.4062 23.7713V16.2287C12.4062 14.121 14.121 12.4062 16.2287 12.4062H23.7713C25.879 12.4062 27.5938 14.121 27.5938 16.2287V23.7713Z" fill="currentColor"/>
<path d="M20 15.1484C17.3248 15.1484 15.1484 17.3248 15.1484 20C15.1484 22.6752 17.3248 24.8516 20 24.8516C22.6752 24.8516 24.8516 22.6752 24.8516 20C24.8516 17.3248 22.6752 15.1484 20 15.1484ZM20 23.4453C18.1003 23.4453 16.5547 21.8997 16.5547 20C16.5547 18.1003 18.1003 16.5547 20 16.5547C21.8997 16.5547 23.4453 18.1003 23.4453 20C23.4453 21.8997 21.8997 23.4453 20 23.4453Z" fill="currentColor"/>
<path d="M24.9219 15.7812C25.3102 15.7812 25.625 15.4665 25.625 15.0781C25.625 14.6898 25.3102 14.375 24.9219 14.375C24.5335 14.375 24.2188 14.6898 24.2188 15.0781C24.2188 15.4665 24.5335 15.7812 24.9219 15.7812Z" fill="currentColor"/>
<circle cx="20" cy="20" r="19" stroke="currentColor" stroke-width="2"/>
</svg>
