<svg width="40" height="40" viewBox="0 0 40 40" fill="none" xmlns="http://www.w3.org/2000/svg">
<g clip-path="url(#clip0)">
<path d="M20.1088 25.625C22.7128 25.625 21.7843 23.9765 21.9853 23.5025C21.9823 23.1485 21.9793 22.808 21.9913 22.601C22.1563 22.6475 22.5455 22.8447 23.3495 23.6262C24.5908 24.8787 24.908 25.625 25.9108 25.625H27.7565C28.3415 25.625 28.646 25.3828 28.7983 25.1795C28.9453 24.983 29.0893 24.638 28.9318 24.101C28.52 22.808 26.1185 20.5753 25.9693 20.3398C25.9918 20.2962 26.0278 20.2385 26.0465 20.2085H26.045C26.519 19.5823 28.328 16.8717 28.5943 15.7872C28.595 15.7857 28.5958 15.7835 28.5958 15.7812C28.7398 15.2862 28.6078 14.9653 28.4713 14.7838C28.2658 14.5123 27.9388 14.375 27.497 14.375H25.6513C25.0333 14.375 24.5645 14.6862 24.3275 15.254C23.9308 16.2627 22.8163 18.3372 21.9808 19.0715C21.9553 18.0312 21.9725 17.237 21.986 16.6467C22.013 15.4955 22.1 14.375 20.9053 14.375H18.0043C17.2558 14.375 16.5395 15.1925 17.315 16.163C17.993 17.0135 17.5588 17.4875 17.705 19.847C17.135 19.2357 16.121 17.585 15.404 15.4753C15.203 14.9045 14.8985 14.3757 14.0413 14.3757H12.1955C11.447 14.3757 11 14.7837 11 15.467C11 17.0015 14.3968 25.625 20.1088 25.625ZM14.0413 15.5007C14.204 15.5007 14.2205 15.5008 14.3413 15.8435C15.0755 18.0058 16.7225 21.2053 17.9255 21.2053C18.8293 21.2053 18.8293 20.279 18.8293 19.9302L18.8285 17.1537C18.779 16.235 18.4445 15.7775 18.2248 15.5L20.8558 15.503C20.8573 15.5158 20.8408 18.5742 20.8633 19.3152C20.8633 20.3675 21.6988 20.9705 23.003 19.6505C24.3793 18.0973 25.331 15.7753 25.3693 15.6808C25.4255 15.5458 25.4743 15.5 25.6513 15.5H27.497H27.5045C27.5038 15.5022 27.5038 15.5045 27.503 15.5067C27.3343 16.2942 25.6685 18.8038 25.1113 19.583C25.1023 19.595 25.094 19.6078 25.0858 19.6205C24.8405 20.021 24.641 20.4635 25.1195 21.086H25.1203C25.1638 21.1385 25.277 21.2615 25.442 21.4325C25.955 21.962 27.7145 23.7725 27.8705 24.4925C27.767 24.509 27.6545 24.497 25.9108 24.5007C25.5395 24.5007 25.2493 23.9458 24.1415 22.8282C23.1455 21.8593 22.499 21.4633 21.9103 21.4633C20.7673 21.4633 20.8505 22.391 20.861 23.513C20.8648 24.7295 20.8573 24.3448 20.8655 24.4213C20.7988 24.4475 20.6075 24.5 20.1088 24.5C15.35 24.5 12.251 16.9468 12.1318 15.503C12.173 15.4993 12.7408 15.5015 14.0413 15.5007Z" fill="currentColor"/>
</g>
<circle cx="20" cy="20" r="19" stroke="currentColor" stroke-width="2"/>
<defs>
<clipPath id="clip0">
<rect width="18" height="18" fill="currentColor" transform="translate(11 11)"/>
</clipPath>
</defs>
</svg>
